<mxfile host="app.diagrams.net" modified="2023-10-25T07:19:58.993Z" agent="Mozilla/5.0 (X11; Linux x86_64) AppleWebKit/537.36 (KHTML, like Gecko) Chrome/114.0.0.0 Safari/537.36" etag="TmPrtIb7ncIR-g8-TcAC" version="22.0.7" type="github">
  <diagram id="prtHgNgQTEPvFCAcTncT" name="Page-1">
    <mxGraphModel dx="1040" dy="627" grid="1" gridSize="10" guides="1" tooltips="1" connect="1" arrows="1" fold="1" page="1" pageScale="1" pageWidth="827" pageHeight="1169" math="0" shadow="0">
      <root>
        <mxCell id="0" />
        <mxCell id="1" parent="0" />
        <mxCell id="ZPZFrVOS1IvttKLutvzc-35" value="" style="rounded=0;whiteSpace=wrap;html=1;" vertex="1" parent="1">
          <mxGeometry x="250" y="398" width="120" height="120" as="geometry" />
        </mxCell>
        <mxCell id="ZPZFrVOS1IvttKLutvzc-15" value="" style="rounded=0;whiteSpace=wrap;html=1;shadow=1;" vertex="1" parent="1">
          <mxGeometry x="500" y="38" width="300" height="290" as="geometry" />
        </mxCell>
        <mxCell id="ZPZFrVOS1IvttKLutvzc-1" value="&lt;font style=&quot;font-size: 14px;&quot;&gt;Product Service&lt;/font&gt;" style="rounded=0;whiteSpace=wrap;html=1;" vertex="1" parent="1">
          <mxGeometry x="630" y="78" width="120" height="60" as="geometry" />
        </mxCell>
        <mxCell id="ZPZFrVOS1IvttKLutvzc-2" value="&lt;font style=&quot;font-size: 14px;&quot;&gt;Order Service&lt;/font&gt;" style="rounded=0;whiteSpace=wrap;html=1;" vertex="1" parent="1">
          <mxGeometry x="630" y="207" width="120" height="60" as="geometry" />
        </mxCell>
        <mxCell id="ZPZFrVOS1IvttKLutvzc-3" value="&lt;font style=&quot;font-size: 14px;&quot;&gt;Discovery Server&lt;/font&gt;" style="rounded=0;whiteSpace=wrap;html=1;" vertex="1" parent="1">
          <mxGeometry x="630" y="398" width="120" height="60" as="geometry" />
        </mxCell>
        <mxCell id="ZPZFrVOS1IvttKLutvzc-8" value="" style="sketch=0;outlineConnect=0;fontColor=#232F3E;gradientColor=none;fillColor=#E7157B;strokeColor=none;dashed=0;verticalLabelPosition=bottom;verticalAlign=top;align=center;html=1;fontSize=12;fontStyle=0;aspect=fixed;pointerEvents=1;shape=mxgraph.aws4.endpoint;" vertex="1" parent="1">
          <mxGeometry x="550" y="79" width="59" height="59" as="geometry" />
        </mxCell>
        <mxCell id="ZPZFrVOS1IvttKLutvzc-10" value="" style="sketch=0;outlineConnect=0;fontColor=#232F3E;gradientColor=none;fillColor=#E7157B;strokeColor=none;dashed=0;verticalLabelPosition=bottom;verticalAlign=top;align=center;html=1;fontSize=12;fontStyle=0;aspect=fixed;pointerEvents=1;shape=mxgraph.aws4.endpoint;" vertex="1" parent="1">
          <mxGeometry x="550" y="208" width="59" height="59" as="geometry" />
        </mxCell>
        <mxCell id="ZPZFrVOS1IvttKLutvzc-11" value="" style="shape=image;html=1;verticalAlign=top;verticalLabelPosition=bottom;labelBackgroundColor=#ffffff;imageAspect=0;aspect=fixed;image=https://cdn2.iconfinder.com/data/icons/boxicons-logos/24/bxl-spring-boot-128.png" vertex="1" parent="1">
          <mxGeometry x="540" y="385.5" width="85" height="85" as="geometry" />
        </mxCell>
        <mxCell id="ZPZFrVOS1IvttKLutvzc-12" value="&lt;font style=&quot;font-size: 14px;&quot;&gt;/api/product&lt;/font&gt;" style="text;html=1;align=center;verticalAlign=middle;resizable=0;points=[];autosize=1;strokeColor=none;fillColor=none;" vertex="1" parent="1">
          <mxGeometry x="532.5" y="138" width="100" height="30" as="geometry" />
        </mxCell>
        <mxCell id="ZPZFrVOS1IvttKLutvzc-13" value="&lt;font style=&quot;font-size: 14px;&quot;&gt;/api/order&lt;br&gt;&lt;/font&gt;" style="text;html=1;align=center;verticalAlign=middle;resizable=0;points=[];autosize=1;strokeColor=none;fillColor=none;" vertex="1" parent="1">
          <mxGeometry x="542.5" y="267" width="80" height="30" as="geometry" />
        </mxCell>
        <mxCell id="ZPZFrVOS1IvttKLutvzc-14" value="&lt;font style=&quot;font-size: 14px;&quot;&gt;Spring Eureka&lt;br&gt;/eureka&lt;br&gt;&lt;/font&gt;" style="text;html=1;align=center;verticalAlign=middle;resizable=0;points=[];autosize=1;strokeColor=none;fillColor=none;" vertex="1" parent="1">
          <mxGeometry x="527.5" y="458" width="110" height="50" as="geometry" />
        </mxCell>
        <mxCell id="ZPZFrVOS1IvttKLutvzc-23" value="&lt;font style=&quot;font-size: 14px;&quot;&gt;Microservices&lt;/font&gt;" style="text;html=1;align=center;verticalAlign=middle;resizable=0;points=[];autosize=1;strokeColor=none;fillColor=none;" vertex="1" parent="1">
          <mxGeometry x="485" y="8" width="110" height="30" as="geometry" />
        </mxCell>
        <mxCell id="ZPZFrVOS1IvttKLutvzc-24" value="" style="rounded=0;whiteSpace=wrap;html=1;" vertex="1" parent="1">
          <mxGeometry x="250" y="38" width="120" height="290" as="geometry" />
        </mxCell>
        <mxCell id="ZPZFrVOS1IvttKLutvzc-27" value="" style="endArrow=classic;html=1;rounded=0;entryX=0;entryY=0.25;entryDx=0;entryDy=0;" edge="1" parent="1" target="ZPZFrVOS1IvttKLutvzc-15">
          <mxGeometry width="50" height="50" relative="1" as="geometry">
            <mxPoint x="370" y="188" as="sourcePoint" />
            <mxPoint x="420" y="138" as="targetPoint" />
          </mxGeometry>
        </mxCell>
        <mxCell id="ZPZFrVOS1IvttKLutvzc-28" value="" style="endArrow=classic;html=1;rounded=0;entryX=-0.01;entryY=0.693;entryDx=0;entryDy=0;entryPerimeter=0;" edge="1" parent="1" target="ZPZFrVOS1IvttKLutvzc-15">
          <mxGeometry width="50" height="50" relative="1" as="geometry">
            <mxPoint x="370" y="188" as="sourcePoint" />
            <mxPoint x="420" y="138" as="targetPoint" />
          </mxGeometry>
        </mxCell>
        <mxCell id="ZPZFrVOS1IvttKLutvzc-29" value="" style="sketch=0;points=[[0,0,0],[0.25,0,0],[0.5,0,0],[0.75,0,0],[1,0,0],[0,1,0],[0.25,1,0],[0.5,1,0],[0.75,1,0],[1,1,0],[0,0.25,0],[0,0.5,0],[0,0.75,0],[1,0.25,0],[1,0.5,0],[1,0.75,0]];outlineConnect=0;fontColor=#232F3E;fillColor=#8C4FFF;strokeColor=#ffffff;dashed=0;verticalLabelPosition=bottom;verticalAlign=top;align=center;html=1;fontSize=12;fontStyle=0;aspect=fixed;shape=mxgraph.aws4.resourceIcon;resIcon=mxgraph.aws4.api_gateway;" vertex="1" parent="1">
          <mxGeometry x="271" y="129" width="78" height="78" as="geometry" />
        </mxCell>
        <mxCell id="ZPZFrVOS1IvttKLutvzc-30" value="&lt;font style=&quot;font-size: 14px;&quot;&gt;API Gateway&lt;/font&gt;" style="text;html=1;align=center;verticalAlign=middle;resizable=0;points=[];autosize=1;strokeColor=none;fillColor=none;" vertex="1" parent="1">
          <mxGeometry x="255" y="218" width="110" height="30" as="geometry" />
        </mxCell>
        <mxCell id="ZPZFrVOS1IvttKLutvzc-31" value="" style="outlineConnect=0;dashed=0;verticalLabelPosition=bottom;verticalAlign=top;align=center;html=1;shape=mxgraph.aws3.add_on;fillColor=#759C3E;gradientColor=none;" vertex="1" parent="1">
          <mxGeometry x="263" y="411" width="94" height="57" as="geometry" />
        </mxCell>
        <mxCell id="ZPZFrVOS1IvttKLutvzc-32" value="" style="endArrow=classic;html=1;rounded=0;entryX=0.417;entryY=0.033;entryDx=0;entryDy=0;entryPerimeter=0;exitX=0.6;exitY=1;exitDx=0;exitDy=0;exitPerimeter=0;" edge="1" parent="1" source="ZPZFrVOS1IvttKLutvzc-15" target="ZPZFrVOS1IvttKLutvzc-3">
          <mxGeometry width="50" height="50" relative="1" as="geometry">
            <mxPoint x="680" y="385.5" as="sourcePoint" />
            <mxPoint x="730" y="335.5" as="targetPoint" />
          </mxGeometry>
        </mxCell>
        <mxCell id="ZPZFrVOS1IvttKLutvzc-33" value="&lt;font style=&quot;font-size: 14px;&quot;&gt;Auth Server&lt;/font&gt;" style="text;html=1;align=center;verticalAlign=middle;resizable=0;points=[];autosize=1;strokeColor=none;fillColor=none;" vertex="1" parent="1">
          <mxGeometry x="265" y="488" width="100" height="30" as="geometry" />
        </mxCell>
        <mxCell id="ZPZFrVOS1IvttKLutvzc-34" value="" style="endArrow=classic;html=1;rounded=0;exitX=0.5;exitY=1;exitDx=0;exitDy=0;" edge="1" parent="1" source="ZPZFrVOS1IvttKLutvzc-24">
          <mxGeometry width="50" height="50" relative="1" as="geometry">
            <mxPoint x="370" y="358" as="sourcePoint" />
            <mxPoint x="310" y="398" as="targetPoint" />
          </mxGeometry>
        </mxCell>
        <mxCell id="ZPZFrVOS1IvttKLutvzc-36" value="" style="rounded=0;whiteSpace=wrap;html=1;" vertex="1" parent="1">
          <mxGeometry x="40" y="38" width="120" height="292" as="geometry" />
        </mxCell>
        <mxCell id="ZPZFrVOS1IvttKLutvzc-37" value="" style="verticalLabelPosition=bottom;html=1;verticalAlign=top;strokeWidth=1;align=center;outlineConnect=0;dashed=0;outlineConnect=0;shape=mxgraph.aws3d.client;aspect=fixed;strokeColor=none;fillColor=#777777;" vertex="1" parent="1">
          <mxGeometry x="70" y="120" width="60" height="104" as="geometry" />
        </mxCell>
        <mxCell id="ZPZFrVOS1IvttKLutvzc-38" value="&lt;font style=&quot;font-size: 14px;&quot;&gt;Client&lt;/font&gt;" style="text;html=1;align=center;verticalAlign=middle;resizable=0;points=[];autosize=1;strokeColor=none;fillColor=none;" vertex="1" parent="1">
          <mxGeometry x="70" y="230" width="60" height="30" as="geometry" />
        </mxCell>
        <mxCell id="ZPZFrVOS1IvttKLutvzc-39" value="" style="endArrow=classic;html=1;rounded=0;entryX=0;entryY=0.5;entryDx=0;entryDy=0;" edge="1" parent="1" target="ZPZFrVOS1IvttKLutvzc-24">
          <mxGeometry width="50" height="50" relative="1" as="geometry">
            <mxPoint x="160" y="183" as="sourcePoint" />
            <mxPoint x="240" y="179" as="targetPoint" />
          </mxGeometry>
        </mxCell>
        <mxCell id="ZPZFrVOS1IvttKLutvzc-40" value="&lt;font style=&quot;font-size: 14px;&quot;&gt;Keycloak&lt;/font&gt;" style="text;html=1;align=center;verticalAlign=middle;resizable=0;points=[];autosize=1;strokeColor=none;fillColor=none;" vertex="1" parent="1">
          <mxGeometry x="270" y="518" width="80" height="30" as="geometry" />
        </mxCell>
      </root>
    </mxGraphModel>
  </diagram>
</mxfile>
